<svg width="787" height="408" viewBox="0 0 787 408" fill="none" xmlns="http://www.w3.org/2000/svg">
<g filter="url(#filter0_f_13_46)">
<rect x="340" y="32" width="26.1651" height="320" fill="white"/>
</g>
<path d="M787 370.85L760.835 355.744V385.957L787 370.85ZM29.9557 373.467H763.451V368.234H29.9557V373.467Z" fill="#E3E3E3"/>
<path d="M29.9539 383.056L29.9539 358.635" stroke="#E3E3E3" stroke-width="5.23303"/>
<path d="M6.54128 403.208C5.42133 403.208 4.4674 402.903 3.67947 402.294C2.89154 401.679 2.28945 400.79 1.87319 399.625C1.45692 398.456 1.24879 397.043 1.24879 395.388C1.24879 393.743 1.45692 392.338 1.87319 391.174C2.2944 390.004 2.89898 389.112 3.6869 388.498C4.47979 387.878 5.43125 387.569 6.54128 387.569C7.65132 387.569 8.6003 387.878 9.38823 388.498C10.1811 389.112 10.7857 390.004 11.2019 391.174C11.6232 392.338 11.8338 393.743 11.8338 395.388C11.8338 397.043 11.6256 398.456 11.2094 399.625C10.7931 400.79 10.191 401.679 9.40309 402.294C8.61516 402.903 7.66123 403.208 6.54128 403.208ZM6.54128 401.573C7.65132 401.573 8.51358 401.038 9.12806 399.967C9.74255 398.897 10.0498 397.371 10.0498 395.388C10.0498 394.07 9.90856 392.948 9.62609 392.021C9.34858 391.094 8.94718 390.388 8.4219 389.903C7.90157 389.417 7.2747 389.174 6.54128 389.174C5.44116 389.174 4.58137 389.717 3.96194 390.802C3.3425 391.882 3.03278 393.411 3.03278 395.388C3.03278 396.706 3.17153 397.826 3.44904 398.748C3.72655 399.67 4.12547 400.371 4.6458 400.852C5.17108 401.332 5.80291 401.573 6.54128 401.573ZM19.6238 403.208C18.5039 403.208 17.55 402.903 16.762 402.294C15.9741 401.679 15.372 400.79 14.9557 399.625C14.5395 398.456 14.3314 397.043 14.3314 395.388C14.3314 393.743 14.5395 392.338 14.9557 391.174C15.377 390.004 15.9815 389.112 16.7695 388.498C17.5623 387.878 18.5138 387.569 19.6238 387.569C20.7339 387.569 21.6829 387.878 22.4708 388.498C23.2637 389.112 23.8682 390.004 24.2845 391.174C24.7057 392.338 24.9163 393.743 24.9163 395.388C24.9163 397.043 24.7082 398.456 24.2919 399.625C23.8757 400.79 23.2736 401.679 22.4857 402.294C21.6977 402.903 20.7438 403.208 19.6238 403.208ZM19.6238 401.573C20.7339 401.573 21.5961 401.038 22.2106 399.967C22.8251 398.897 23.1323 397.371 23.1323 395.388C23.1323 394.07 22.9911 392.948 22.7087 392.021C22.4311 391.094 22.0297 390.388 21.5045 389.903C20.9841 389.417 20.3573 389.174 19.6238 389.174C18.5237 389.174 17.6639 389.717 17.0445 390.802C16.4251 391.882 16.1153 393.411 16.1153 395.388C16.1153 396.706 16.2541 397.826 16.5316 398.748C16.8091 399.67 17.208 400.371 17.7284 400.852C18.2536 401.332 18.8855 401.573 19.6238 401.573ZM29.0492 401.052C28.6825 401.052 28.3679 400.921 28.1052 400.659C27.8426 400.396 27.7112 400.081 27.7112 399.714C27.7112 399.348 27.8426 399.033 28.1052 398.77C28.3679 398.508 28.6825 398.377 29.0492 398.377C29.4159 398.377 29.7306 398.508 29.9933 398.77C30.2559 399.033 30.3872 399.348 30.3872 399.714C30.3872 399.957 30.3253 400.18 30.2014 400.383C30.0825 400.587 29.9214 400.75 29.7182 400.874C29.52 400.993 29.297 401.052 29.0492 401.052ZM29.0492 393.352C28.6825 393.352 28.3679 393.22 28.1052 392.958C27.8426 392.695 27.7112 392.38 27.7112 392.014C27.7112 391.647 27.8426 391.332 28.1052 391.07C28.3679 390.807 28.6825 390.676 29.0492 390.676C29.4159 390.676 29.7306 390.807 29.9933 391.07C30.2559 391.332 30.3872 391.647 30.3872 392.014C30.3872 392.256 30.3253 392.479 30.2014 392.683C30.0825 392.886 29.9214 393.049 29.7182 393.173C29.52 393.292 29.297 393.352 29.0492 393.352ZM38.4709 403.208C37.351 403.208 36.397 402.903 35.6091 402.294C34.8212 401.679 34.2191 400.79 33.8028 399.625C33.3866 398.456 33.1784 397.043 33.1784 395.388C33.1784 393.743 33.3866 392.338 33.8028 391.174C34.224 390.004 34.8286 389.112 35.6165 388.498C36.4094 387.878 37.3609 387.569 38.4709 387.569C39.5809 387.569 40.5299 387.878 41.3179 388.498C42.1107 389.112 42.7153 390.004 43.1316 391.174C43.5528 392.338 43.7634 393.743 43.7634 395.388C43.7634 397.043 43.5553 398.456 43.139 399.625C42.7227 400.79 42.1206 401.679 41.3327 402.294C40.5448 402.903 39.5909 403.208 38.4709 403.208ZM38.4709 401.573C39.5809 401.573 40.4432 401.038 41.0577 399.967C41.6722 398.897 41.9794 397.371 41.9794 395.388C41.9794 394.07 41.8382 392.948 41.5557 392.021C41.2782 391.094 40.8768 390.388 40.3515 389.903C39.8312 389.417 39.2043 389.174 38.4709 389.174C37.3708 389.174 36.511 389.717 35.8916 390.802C35.2721 391.882 34.9624 393.411 34.9624 395.388C34.9624 396.706 35.1012 397.826 35.3787 398.748C35.6562 399.67 36.0551 400.371 36.5754 400.852C37.1007 401.332 37.7325 401.573 38.4709 401.573ZM51.5535 403.208C50.4335 403.208 49.4796 402.903 48.6917 402.294C47.9037 401.679 47.3016 400.79 46.8854 399.625C46.4691 398.456 46.261 397.043 46.261 395.388C46.261 393.743 46.4691 392.338 46.8854 391.174C47.3066 390.004 47.9112 389.112 48.6991 388.498C49.492 387.878 50.4434 387.569 51.5535 387.569C52.6635 387.569 53.6125 387.878 54.4004 388.498C55.1933 389.112 55.7979 390.004 56.2141 391.174C56.6354 392.338 56.846 393.743 56.846 395.388C56.846 397.043 56.6378 398.456 56.2216 399.625C55.8053 400.79 55.2032 401.679 54.4153 402.294C53.6274 402.903 52.6734 403.208 51.5535 403.208ZM51.5535 401.573C52.6635 401.573 53.5258 401.038 54.1403 399.967C54.7547 398.897 55.062 397.371 55.062 395.388C55.062 394.07 54.9207 392.948 54.6383 392.021C54.3608 391.094 53.9594 390.388 53.4341 389.903C52.9138 389.417 52.2869 389.174 51.5535 389.174C50.4533 389.174 49.5936 389.717 48.9741 390.802C48.3547 391.882 48.045 393.411 48.045 395.388C48.045 396.706 48.1837 397.826 48.4612 398.748C48.7387 399.67 49.1377 400.371 49.658 400.852C50.1833 401.332 50.8151 401.573 51.5535 401.573Z" fill="#808191"/>
<path d="M228.791 383.056L228.791 358.635" stroke="#E3E3E3" stroke-width="5.23303"/>
<path d="M206.541 403.208C205.421 403.208 204.467 402.903 203.679 402.294C202.892 401.679 202.289 400.79 201.873 399.625C201.457 398.456 201.249 397.043 201.249 395.388C201.249 393.743 201.457 392.338 201.873 391.174C202.294 390.004 202.899 389.112 203.687 388.498C204.48 387.878 205.431 387.569 206.541 387.569C207.651 387.569 208.6 387.878 209.388 388.498C210.181 389.112 210.786 390.004 211.202 391.174C211.623 392.338 211.834 393.743 211.834 395.388C211.834 397.043 211.626 398.456 211.209 399.625C210.793 400.79 210.191 401.679 209.403 402.294C208.615 402.903 207.661 403.208 206.541 403.208ZM206.541 401.573C207.651 401.573 208.514 401.038 209.128 399.967C209.743 398.897 210.05 397.371 210.05 395.388C210.05 394.07 209.909 392.948 209.626 392.021C209.349 391.094 208.947 390.388 208.422 389.903C207.902 389.417 207.275 389.174 206.541 389.174C205.441 389.174 204.581 389.717 203.962 390.802C203.342 391.882 203.033 393.411 203.033 395.388C203.033 396.706 203.172 397.826 203.449 398.748C203.727 399.67 204.125 400.371 204.646 400.852C205.171 401.332 205.803 401.573 206.541 401.573ZM219.535 403.208C218.514 403.208 217.612 403.027 216.829 402.666C216.051 402.299 215.444 401.796 215.008 401.157C214.572 400.512 214.356 399.779 214.361 398.956C214.356 398.312 214.482 397.717 214.74 397.172C214.998 396.622 215.35 396.164 215.796 395.797C216.247 395.425 216.75 395.19 217.305 395.091V395.002C216.576 394.813 215.996 394.405 215.565 393.775C215.134 393.141 214.921 392.42 214.926 391.612C214.921 390.839 215.117 390.148 215.513 389.538C215.91 388.929 216.455 388.448 217.149 388.096C217.847 387.744 218.643 387.569 219.535 387.569C220.417 387.569 221.205 387.744 221.898 388.096C222.592 388.448 223.137 388.929 223.534 389.538C223.935 390.148 224.138 390.839 224.143 391.612C224.138 392.42 223.918 393.141 223.482 393.775C223.051 394.405 222.478 394.813 221.765 395.002V395.091C222.315 395.19 222.81 395.425 223.251 395.797C223.692 396.164 224.044 396.622 224.307 397.172C224.569 397.717 224.703 398.312 224.708 398.956C224.703 399.779 224.48 400.512 224.039 401.157C223.603 401.796 222.996 402.299 222.218 402.666C221.445 403.027 220.551 403.208 219.535 403.208ZM219.535 401.573C220.223 401.573 220.818 401.461 221.319 401.238C221.819 401.015 222.206 400.701 222.478 400.294C222.751 399.888 222.89 399.412 222.894 398.867C222.89 398.292 222.741 397.784 222.448 397.343C222.156 396.902 221.757 396.555 221.252 396.303C220.751 396.05 220.179 395.924 219.535 395.924C218.885 395.924 218.306 396.05 217.795 396.303C217.29 396.555 216.891 396.902 216.599 397.343C216.311 397.784 216.17 398.292 216.175 398.867C216.17 399.412 216.301 399.888 216.569 400.294C216.841 400.701 217.23 401.015 217.736 401.238C218.241 401.461 218.841 401.573 219.535 401.573ZM219.535 394.348C220.08 394.348 220.563 394.239 220.984 394.021C221.41 393.803 221.745 393.498 221.988 393.106C222.23 392.715 222.354 392.256 222.359 391.731C222.354 391.216 222.233 390.767 221.995 390.386C221.757 389.999 221.428 389.702 221.006 389.494C220.585 389.281 220.095 389.174 219.535 389.174C218.965 389.174 218.467 389.281 218.041 389.494C217.614 389.702 217.285 389.999 217.052 390.386C216.819 390.767 216.705 391.216 216.71 391.731C216.705 392.256 216.821 392.715 217.059 393.106C217.302 393.498 217.637 393.803 218.063 394.021C218.489 394.239 218.98 394.348 219.535 394.348ZM228.865 401.052C228.499 401.052 228.184 400.921 227.921 400.659C227.659 400.396 227.527 400.081 227.527 399.714C227.527 399.348 227.659 399.033 227.921 398.77C228.184 398.508 228.499 398.377 228.865 398.377C229.232 398.377 229.547 398.508 229.809 398.77C230.072 399.033 230.203 399.348 230.203 399.714C230.203 399.957 230.141 400.18 230.017 400.383C229.898 400.587 229.737 400.75 229.534 400.874C229.336 400.993 229.113 401.052 228.865 401.052ZM228.865 393.352C228.499 393.352 228.184 393.22 227.921 392.958C227.659 392.695 227.527 392.38 227.527 392.014C227.527 391.647 227.659 391.332 227.921 391.07C228.184 390.807 228.499 390.676 228.865 390.676C229.232 390.676 229.547 390.807 229.809 391.07C230.072 391.332 230.203 391.647 230.203 392.014C230.203 392.256 230.141 392.479 230.017 392.683C229.898 392.886 229.737 393.049 229.534 393.173C229.336 393.292 229.113 393.352 228.865 393.352ZM238.287 403.208C237.167 403.208 236.213 402.903 235.425 402.294C234.637 401.679 234.035 400.79 233.619 399.625C233.203 398.456 232.994 397.043 232.994 395.388C232.994 393.743 233.203 392.338 233.619 391.174C234.04 390.004 234.645 389.112 235.433 388.498C236.225 387.878 237.177 387.569 238.287 387.569C239.397 387.569 240.346 387.878 241.134 388.498C241.927 389.112 242.531 390.004 242.948 391.174C243.369 392.338 243.579 393.743 243.579 395.388C243.579 397.043 243.371 398.456 242.955 399.625C242.539 400.79 241.937 401.679 241.149 402.294C240.361 402.903 239.407 403.208 238.287 403.208ZM238.287 401.573C239.397 401.573 240.259 401.038 240.874 399.967C241.488 398.897 241.795 397.371 241.795 395.388C241.795 394.07 241.654 392.948 241.372 392.021C241.094 391.094 240.693 390.388 240.168 389.903C239.647 389.417 239.02 389.174 238.287 389.174C237.187 389.174 236.327 389.717 235.708 390.802C235.088 391.882 234.778 393.411 234.778 395.388C234.778 396.706 234.917 397.826 235.195 398.748C235.472 399.67 235.871 400.371 236.391 400.852C236.917 401.332 237.549 401.573 238.287 401.573ZM251.369 403.208C250.25 403.208 249.296 402.903 248.508 402.294C247.72 401.679 247.118 400.79 246.701 399.625C246.285 398.456 246.077 397.043 246.077 395.388C246.077 393.743 246.285 392.338 246.701 391.174C247.123 390.004 247.727 389.112 248.515 388.498C249.308 387.878 250.259 387.569 251.369 387.569C252.48 387.569 253.429 387.878 254.216 388.498C255.009 389.112 255.614 390.004 256.03 391.174C256.451 392.338 256.662 393.743 256.662 395.388C256.662 397.043 256.454 398.456 256.038 399.625C255.621 400.79 255.019 401.679 254.231 402.294C253.443 402.903 252.489 403.208 251.369 403.208ZM251.369 401.573C252.48 401.573 253.342 401.038 253.956 399.967C254.571 398.897 254.878 397.371 254.878 395.388C254.878 394.07 254.737 392.948 254.454 392.021C254.177 391.094 253.775 390.388 253.25 389.903C252.73 389.417 252.103 389.174 251.369 389.174C250.269 389.174 249.41 389.717 248.79 390.802C248.171 391.882 247.861 393.411 247.861 395.388C247.861 396.706 248 397.826 248.277 398.748C248.555 399.67 248.954 400.371 249.474 400.852C249.999 401.332 250.631 401.573 251.369 401.573Z" fill="#808191"/>
<path d="M698.033 383.056L698.033 358.635" stroke="#E3E3E3" stroke-width="5.23303"/>
<path d="M670.576 403V401.662L675.601 396.161C676.19 395.517 676.676 394.957 677.058 394.481C677.439 394.001 677.722 393.55 677.905 393.129C678.093 392.702 678.188 392.256 678.188 391.791C678.188 391.255 678.059 390.792 677.801 390.401C677.548 390.009 677.201 389.707 676.76 389.494C676.319 389.281 675.824 389.174 675.274 389.174C674.689 389.174 674.179 389.296 673.742 389.538C673.311 389.776 672.977 390.111 672.739 390.542C672.506 390.973 672.39 391.478 672.39 392.058H670.635C670.635 391.166 670.841 390.383 671.252 389.709C671.664 389.035 672.224 388.51 672.932 388.133C673.646 387.757 674.446 387.569 675.333 387.569C676.225 387.569 677.016 387.757 677.704 388.133C678.393 388.51 678.933 389.018 679.325 389.657C679.716 390.297 679.912 391.008 679.912 391.791C679.912 392.351 679.81 392.898 679.607 393.433C679.409 393.964 679.062 394.556 678.567 395.21C678.076 395.859 677.395 396.652 676.522 397.589L673.103 401.246V401.365H680.18V403H670.576ZM688.215 403.208C687.095 403.208 686.141 402.903 685.353 402.294C684.565 401.679 683.963 400.79 683.547 399.625C683.131 398.456 682.923 397.043 682.923 395.388C682.923 393.743 683.131 392.338 683.547 391.174C683.968 390.004 684.573 389.112 685.361 388.498C686.154 387.878 687.105 387.569 688.215 387.569C689.325 387.569 690.274 387.878 691.062 388.498C691.855 389.112 692.459 390.004 692.876 391.174C693.297 392.338 693.508 393.743 693.508 395.388C693.508 397.043 693.299 398.456 692.883 399.625C692.467 400.79 691.865 401.679 691.077 402.294C690.289 402.903 689.335 403.208 688.215 403.208ZM688.215 401.573C689.325 401.573 690.187 401.038 690.802 399.967C691.416 398.897 691.724 397.371 691.724 395.388C691.724 394.07 691.582 392.948 691.3 392.021C691.022 391.094 690.621 390.388 690.096 389.903C689.575 389.417 688.948 389.174 688.215 389.174C687.115 389.174 686.255 389.717 685.636 390.802C685.016 391.882 684.707 393.411 684.707 395.388C684.707 396.706 684.845 397.826 685.123 398.748C685.4 399.67 685.799 400.371 686.32 400.852C686.845 401.332 687.477 401.573 688.215 401.573ZM697.64 401.052C697.274 401.052 696.959 400.921 696.696 400.659C696.434 400.396 696.302 400.081 696.302 399.714C696.302 399.348 696.434 399.033 696.696 398.77C696.959 398.508 697.274 398.377 697.64 398.377C698.007 398.377 698.322 398.508 698.584 398.77C698.847 399.033 698.978 399.348 698.978 399.714C698.978 399.957 698.916 400.18 698.793 400.383C698.674 400.587 698.513 400.75 698.309 400.874C698.111 400.993 697.888 401.052 697.64 401.052ZM697.64 393.352C697.274 393.352 696.959 393.22 696.696 392.958C696.434 392.695 696.302 392.38 696.302 392.014C696.302 391.647 696.434 391.332 696.696 391.07C696.959 390.807 697.274 390.676 697.64 390.676C698.007 390.676 698.322 390.807 698.584 391.07C698.847 391.332 698.978 391.647 698.978 392.014C698.978 392.256 698.916 392.479 698.793 392.683C698.674 392.886 698.513 393.049 698.309 393.173C698.111 393.292 697.888 393.352 697.64 393.352ZM707.24 403.208C706.259 403.208 705.385 403.04 704.617 402.703C703.853 402.366 703.246 401.897 702.795 401.298C702.349 400.693 702.107 399.992 702.067 399.194H703.94C703.98 399.685 704.148 400.108 704.446 400.465C704.743 400.817 705.132 401.09 705.613 401.283C706.093 401.476 706.626 401.573 707.211 401.573C707.865 401.573 708.445 401.459 708.95 401.231C709.456 401.003 709.852 400.686 710.139 400.279C710.427 399.873 710.571 399.402 710.571 398.867C710.571 398.307 710.432 397.814 710.154 397.388C709.877 396.957 709.47 396.62 708.935 396.377C708.4 396.134 707.746 396.013 706.973 396.013H705.754V394.377H706.973C707.577 394.377 708.108 394.268 708.564 394.05C709.024 393.832 709.384 393.525 709.641 393.129C709.904 392.732 710.035 392.266 710.035 391.731C710.035 391.216 709.921 390.767 709.693 390.386C709.466 390.004 709.143 389.707 708.727 389.494C708.316 389.281 707.83 389.174 707.27 389.174C706.745 389.174 706.249 389.271 705.784 389.464C705.323 389.652 704.946 389.927 704.654 390.289C704.361 390.646 704.203 391.077 704.178 391.582H702.394C702.424 390.785 702.664 390.086 703.115 389.486C703.566 388.882 704.156 388.411 704.884 388.074C705.618 387.737 706.423 387.569 707.3 387.569C708.241 387.569 709.049 387.759 709.723 388.141C710.397 388.518 710.915 389.016 711.277 389.635C711.639 390.254 711.819 390.923 711.819 391.642C711.819 392.499 711.594 393.23 711.143 393.835C710.697 394.439 710.09 394.858 709.322 395.091V395.21C710.283 395.369 711.034 395.777 711.574 396.436C712.114 397.091 712.384 397.901 712.384 398.867C712.384 399.695 712.159 400.438 711.708 401.097C711.262 401.751 710.652 402.267 709.879 402.643C709.106 403.02 708.227 403.208 707.24 403.208ZM720.39 403.208C719.27 403.208 718.316 402.903 717.528 402.294C716.74 401.679 716.138 400.79 715.722 399.625C715.306 398.456 715.097 397.043 715.097 395.388C715.097 393.743 715.306 392.338 715.722 391.174C716.143 390.004 716.748 389.112 717.536 388.498C718.328 387.878 719.28 387.569 720.39 387.569C721.5 387.569 722.449 387.878 723.237 388.498C724.03 389.112 724.634 390.004 725.051 391.174C725.472 392.338 725.682 393.743 725.682 395.388C725.682 397.043 725.474 398.456 725.058 399.625C724.642 400.79 724.04 401.679 723.252 402.294C722.464 402.903 721.51 403.208 720.39 403.208ZM720.39 401.573C721.5 401.573 722.362 401.038 722.977 399.967C723.591 398.897 723.898 397.371 723.898 395.388C723.898 394.07 723.757 392.948 723.475 392.021C723.197 391.094 722.796 390.388 722.271 389.903C721.75 389.417 721.123 389.174 720.39 389.174C719.29 389.174 718.43 389.717 717.811 390.802C717.191 391.882 716.881 393.411 716.881 395.388C716.881 396.706 717.02 397.826 717.298 398.748C717.575 399.67 717.974 400.371 718.494 400.852C719.02 401.332 719.652 401.573 720.39 401.573Z" fill="#808191"/>
<path d="M453.83 383.056L453.83 358.635" stroke="#E3E3E3" stroke-width="5.23303"/>
<path d="M432.928 387.777V403H431.084V389.709H430.995L427.279 392.177V390.304L431.084 387.777H432.928ZM442.45 403.208C441.469 403.208 440.594 403.04 439.826 402.703C439.063 402.366 438.456 401.897 438.005 401.298C437.559 400.693 437.316 399.992 437.276 399.194H439.149C439.189 399.685 439.358 400.108 439.655 400.465C439.952 400.817 440.341 401.09 440.822 401.283C441.303 401.476 441.835 401.573 442.42 401.573C443.074 401.573 443.654 401.459 444.159 401.231C444.665 401.003 445.061 400.686 445.349 400.279C445.636 399.873 445.78 399.402 445.78 398.867C445.78 398.307 445.641 397.814 445.364 397.388C445.086 396.957 444.68 396.62 444.145 396.377C443.609 396.134 442.955 396.013 442.182 396.013H440.963V394.377H442.182C442.787 394.377 443.317 394.268 443.773 394.05C444.234 393.832 444.593 393.525 444.851 393.129C445.113 392.732 445.245 392.266 445.245 391.731C445.245 391.216 445.131 390.767 444.903 390.386C444.675 390.004 444.353 389.707 443.936 389.494C443.525 389.281 443.04 389.174 442.48 389.174C441.954 389.174 441.459 389.271 440.993 389.464C440.532 389.652 440.155 389.927 439.863 390.289C439.571 390.646 439.412 391.077 439.387 391.582H437.603C437.633 390.785 437.873 390.086 438.324 389.486C438.775 388.882 439.365 388.411 440.093 388.074C440.827 387.737 441.632 387.569 442.509 387.569C443.451 387.569 444.259 387.759 444.933 388.141C445.606 388.518 446.124 389.016 446.486 389.635C446.848 390.254 447.029 390.923 447.029 391.642C447.029 392.499 446.803 393.23 446.352 393.835C445.906 394.439 445.299 394.858 444.531 395.091V395.21C445.493 395.369 446.243 395.777 446.783 396.436C447.324 397.091 447.594 397.901 447.594 398.867C447.594 399.695 447.368 400.438 446.917 401.097C446.471 401.751 445.862 402.267 445.089 402.643C444.316 403.02 443.436 403.208 442.45 403.208ZM451.942 401.052C451.575 401.052 451.261 400.921 450.998 400.659C450.735 400.396 450.604 400.081 450.604 399.714C450.604 399.348 450.735 399.033 450.998 398.77C451.261 398.508 451.575 398.377 451.942 398.377C452.309 398.377 452.624 398.508 452.886 398.77C453.149 399.033 453.28 399.348 453.28 399.714C453.28 399.957 453.218 400.18 453.094 400.383C452.975 400.587 452.814 400.75 452.611 400.874C452.413 400.993 452.19 401.052 451.942 401.052ZM451.942 393.352C451.575 393.352 451.261 393.22 450.998 392.958C450.735 392.695 450.604 392.38 450.604 392.014C450.604 391.647 450.735 391.332 450.998 391.07C451.261 390.807 451.575 390.676 451.942 390.676C452.309 390.676 452.624 390.807 452.886 391.07C453.149 391.332 453.28 391.647 453.28 392.014C453.28 392.256 453.218 392.479 453.094 392.683C452.975 392.886 452.814 393.049 452.611 393.173C452.413 393.292 452.19 393.352 451.942 393.352ZM461.364 403.208C460.244 403.208 459.29 402.903 458.502 402.294C457.714 401.679 457.112 400.79 456.696 399.625C456.279 398.456 456.071 397.043 456.071 395.388C456.071 393.743 456.279 392.338 456.696 391.174C457.117 390.004 457.721 389.112 458.509 388.498C459.302 387.878 460.254 387.569 461.364 387.569C462.474 387.569 463.423 387.878 464.211 388.498C465.004 389.112 465.608 390.004 466.024 391.174C466.446 392.338 466.656 393.743 466.656 395.388C466.656 397.043 466.448 398.456 466.032 399.625C465.616 400.79 465.014 401.679 464.226 402.294C463.438 402.903 462.484 403.208 461.364 403.208ZM461.364 401.573C462.474 401.573 463.336 401.038 463.951 399.967C464.565 398.897 464.872 397.371 464.872 395.388C464.872 394.07 464.731 392.948 464.449 392.021C464.171 391.094 463.77 390.388 463.244 389.903C462.724 389.417 462.097 389.174 461.364 389.174C460.264 389.174 459.404 389.717 458.784 390.802C458.165 391.882 457.855 393.411 457.855 395.388C457.855 396.706 457.994 397.826 458.272 398.748C458.549 399.67 458.948 400.371 459.468 400.852C459.994 401.332 460.625 401.573 461.364 401.573ZM474.446 403.208C473.326 403.208 472.372 402.903 471.585 402.294C470.797 401.679 470.195 400.79 469.778 399.625C469.362 398.456 469.154 397.043 469.154 395.388C469.154 393.743 469.362 392.338 469.778 391.174C470.199 390.004 470.804 389.112 471.592 388.498C472.385 387.878 473.336 387.569 474.446 387.569C475.556 387.569 476.505 387.878 477.293 388.498C478.086 389.112 478.691 390.004 479.107 391.174C479.528 392.338 479.739 393.743 479.739 395.388C479.739 397.043 479.531 398.456 479.114 399.625C478.698 400.79 478.096 401.679 477.308 402.294C476.52 402.903 475.566 403.208 474.446 403.208ZM474.446 401.573C475.556 401.573 476.419 401.038 477.033 399.967C477.648 398.897 477.955 397.371 477.955 395.388C477.955 394.07 477.814 392.948 477.531 392.021C477.254 391.094 476.852 390.388 476.327 389.903C475.807 389.417 475.18 389.174 474.446 389.174C473.346 389.174 472.486 389.717 471.867 390.802C471.248 391.882 470.938 393.411 470.938 395.388C470.938 396.706 471.077 397.826 471.354 398.748C471.632 399.67 472.031 400.371 472.551 400.852C473.076 401.332 473.708 401.573 474.446 401.573Z" fill="#808191"/>
<path d="M352.669 383.063L352.669 358.642" stroke="#E3E3E3" stroke-width="5.23303"/>
<path d="M333.928 387.777V403H332.084V389.709H331.995L328.279 392.177V390.304L332.084 387.777H333.928ZM343.658 387.777V403H341.815V389.709H341.725L338.009 392.177V390.304L341.815 387.777H343.658ZM349.344 401.052C348.978 401.052 348.663 400.921 348.4 400.659C348.138 400.396 348.006 400.081 348.006 399.714C348.006 399.348 348.138 399.033 348.4 398.77C348.663 398.508 348.978 398.377 349.344 398.377C349.711 398.377 350.026 398.508 350.288 398.77C350.551 399.033 350.682 399.348 350.682 399.714C350.682 399.957 350.62 400.18 350.497 400.383C350.378 400.587 350.217 400.75 350.013 400.874C349.815 400.993 349.592 401.052 349.344 401.052ZM349.344 393.352C348.978 393.352 348.663 393.22 348.4 392.958C348.138 392.695 348.006 392.38 348.006 392.014C348.006 391.647 348.138 391.332 348.4 391.07C348.663 390.807 348.978 390.676 349.344 390.676C349.711 390.676 350.026 390.807 350.288 391.07C350.551 391.332 350.682 391.647 350.682 392.014C350.682 392.256 350.62 392.479 350.497 392.683C350.378 392.886 350.217 393.049 350.013 393.173C349.815 393.292 349.592 393.352 349.344 393.352ZM358.766 403.208C357.646 403.208 356.692 402.903 355.904 402.294C355.116 401.679 354.514 400.79 354.098 399.625C353.682 398.456 353.474 397.043 353.474 395.388C353.474 393.743 353.682 392.338 354.098 391.174C354.519 390.004 355.124 389.112 355.912 388.498C356.705 387.878 357.656 387.569 358.766 387.569C359.876 387.569 360.825 387.878 361.613 388.498C362.406 389.112 363.01 390.004 363.427 391.174C363.848 392.338 364.059 393.743 364.059 395.388C364.059 397.043 363.85 398.456 363.434 399.625C363.018 400.79 362.416 401.679 361.628 402.294C360.84 402.903 359.886 403.208 358.766 403.208ZM358.766 401.573C359.876 401.573 360.738 401.038 361.353 399.967C361.967 398.897 362.275 397.371 362.275 395.388C362.275 394.07 362.133 392.948 361.851 392.021C361.573 391.094 361.172 390.388 360.647 389.903C360.126 389.417 359.5 389.174 358.766 389.174C357.666 389.174 356.806 389.717 356.187 390.802C355.567 391.882 355.258 393.411 355.258 395.388C355.258 396.706 355.396 397.826 355.674 398.748C355.951 399.67 356.35 400.371 356.871 400.852C357.396 401.332 358.028 401.573 358.766 401.573ZM371.849 403.208C370.729 403.208 369.775 402.903 368.987 402.294C368.199 401.679 367.597 400.79 367.181 399.625C366.764 398.456 366.556 397.043 366.556 395.388C366.556 393.743 366.764 392.338 367.181 391.174C367.602 390.004 368.206 389.112 368.994 388.498C369.787 387.878 370.739 387.569 371.849 387.569C372.959 387.569 373.908 387.878 374.696 388.498C375.488 389.112 376.093 390.004 376.509 391.174C376.931 392.338 377.141 393.743 377.141 395.388C377.141 397.043 376.933 398.456 376.517 399.625C376.1 400.79 375.498 401.679 374.71 402.294C373.923 402.903 372.969 403.208 371.849 403.208ZM371.849 401.573C372.959 401.573 373.821 401.038 374.435 399.967C375.05 398.897 375.357 397.371 375.357 395.388C375.357 394.07 375.216 392.948 374.933 392.021C374.656 391.094 374.255 390.388 373.729 389.903C373.209 389.417 372.582 389.174 371.849 389.174C370.749 389.174 369.889 389.717 369.269 390.802C368.65 391.882 368.34 393.411 368.34 395.388C368.34 396.706 368.479 397.826 368.756 398.748C369.034 399.67 369.433 400.371 369.953 400.852C370.478 401.332 371.11 401.573 371.849 401.573Z" fill="#808191"/>
<path d="M127.636 383.063L127.636 358.642" stroke="#E3E3E3" stroke-width="5.23303"/>
<path d="M104.541 403.208C103.421 403.208 102.467 402.903 101.679 402.294C100.892 401.679 100.289 400.79 99.8732 399.625C99.4569 398.456 99.2488 397.043 99.2488 395.388C99.2488 393.743 99.4569 392.338 99.8732 391.174C100.294 390.004 100.899 389.112 101.687 388.498C102.48 387.878 103.431 387.569 104.541 387.569C105.651 387.569 106.6 387.878 107.388 388.498C108.181 389.112 108.786 390.004 109.202 391.174C109.623 392.338 109.834 393.743 109.834 395.388C109.834 397.043 109.626 398.456 109.209 399.625C108.793 400.79 108.191 401.679 107.403 402.294C106.615 402.903 105.661 403.208 104.541 403.208ZM104.541 401.573C105.651 401.573 106.514 401.038 107.128 399.967C107.743 398.897 108.05 397.371 108.05 395.388C108.05 394.07 107.909 392.948 107.626 392.021C107.349 391.094 106.947 390.388 106.422 389.903C105.902 389.417 105.275 389.174 104.541 389.174C103.441 389.174 102.581 389.717 101.962 390.802C101.342 391.882 101.033 393.411 101.033 395.388C101.033 396.706 101.172 397.826 101.449 398.748C101.727 399.67 102.125 400.371 102.646 400.852C103.171 401.332 103.803 401.573 104.541 401.573ZM112.302 399.878V398.362L118.992 387.777H120.092V390.126H119.348L114.294 398.124V398.243H123.303V399.878H112.302ZM119.467 403V399.417V398.711V387.777H121.222V403H119.467ZM127.397 401.052C127.03 401.052 126.715 400.921 126.453 400.659C126.19 400.396 126.059 400.081 126.059 399.714C126.059 399.348 126.19 399.033 126.453 398.77C126.715 398.508 127.03 398.377 127.397 398.377C127.763 398.377 128.078 398.508 128.341 398.77C128.603 399.033 128.735 399.348 128.735 399.714C128.735 399.957 128.673 400.18 128.549 400.383C128.43 400.587 128.269 400.75 128.066 400.874C127.868 400.993 127.645 401.052 127.397 401.052ZM127.397 393.352C127.03 393.352 126.715 393.22 126.453 392.958C126.19 392.695 126.059 392.38 126.059 392.014C126.059 391.647 126.19 391.332 126.453 391.07C126.715 390.807 127.03 390.676 127.397 390.676C127.763 390.676 128.078 390.807 128.341 391.07C128.603 391.332 128.735 391.647 128.735 392.014C128.735 392.256 128.673 392.479 128.549 392.683C128.43 392.886 128.269 393.049 128.066 393.173C127.868 393.292 127.645 393.352 127.397 393.352ZM136.997 403.208C136.016 403.208 135.141 403.04 134.373 402.703C133.61 402.366 133.003 401.897 132.552 401.298C132.106 400.693 131.863 399.992 131.823 399.194H133.696C133.736 399.685 133.905 400.108 134.202 400.465C134.499 400.817 134.888 401.09 135.369 401.283C135.85 401.476 136.382 401.573 136.967 401.573C137.621 401.573 138.201 401.459 138.706 401.231C139.212 401.003 139.608 400.686 139.896 400.279C140.183 399.873 140.327 399.402 140.327 398.867C140.327 398.307 140.188 397.814 139.911 397.388C139.633 396.957 139.227 396.62 138.692 396.377C138.156 396.134 137.502 396.013 136.729 396.013H135.51V394.377H136.729C137.334 394.377 137.864 394.268 138.32 394.05C138.781 393.832 139.14 393.525 139.398 393.129C139.66 392.732 139.792 392.266 139.792 391.731C139.792 391.216 139.678 390.767 139.45 390.386C139.222 390.004 138.9 389.707 138.483 389.494C138.072 389.281 137.587 389.174 137.027 389.174C136.501 389.174 136.006 389.271 135.54 389.464C135.079 389.652 134.702 389.927 134.41 390.289C134.118 390.646 133.959 391.077 133.934 391.582H132.15C132.18 390.785 132.42 390.086 132.871 389.486C133.322 388.882 133.912 388.411 134.64 388.074C135.374 387.737 136.179 387.569 137.056 387.569C137.998 387.569 138.806 387.759 139.48 388.141C140.153 388.518 140.671 389.016 141.033 389.635C141.395 390.254 141.576 390.923 141.576 391.642C141.576 392.499 141.35 393.23 140.899 393.835C140.453 394.439 139.846 394.858 139.078 395.091V395.21C140.04 395.369 140.79 395.777 141.33 396.436C141.871 397.091 142.141 397.901 142.141 398.867C142.141 399.695 141.915 400.438 141.464 401.097C141.018 401.751 140.409 402.267 139.636 402.643C138.863 403.02 137.983 403.208 136.997 403.208ZM150.146 403.208C149.026 403.208 148.072 402.903 147.284 402.294C146.497 401.679 145.894 400.79 145.478 399.625C145.062 398.456 144.854 397.043 144.854 395.388C144.854 393.743 145.062 392.338 145.478 391.174C145.899 390.004 146.504 389.112 147.292 388.498C148.085 387.878 149.036 387.569 150.146 387.569C151.256 387.569 152.205 387.878 152.993 388.498C153.786 389.112 154.391 390.004 154.807 391.174C155.228 392.338 155.439 393.743 155.439 395.388C155.439 397.043 155.231 398.456 154.814 399.625C154.398 400.79 153.796 401.679 153.008 402.294C152.22 402.903 151.266 403.208 150.146 403.208ZM150.146 401.573C151.256 401.573 152.119 401.038 152.733 399.967C153.348 398.897 153.655 397.371 153.655 395.388C153.655 394.07 153.514 392.948 153.231 392.021C152.954 391.094 152.552 390.388 152.027 389.903C151.507 389.417 150.88 389.174 150.146 389.174C149.046 389.174 148.186 389.717 147.567 390.802C146.947 391.882 146.638 393.411 146.638 395.388C146.638 396.706 146.777 397.826 147.054 398.748C147.332 399.67 147.73 400.371 148.251 400.852C148.776 401.332 149.408 401.573 150.146 401.573Z" fill="#808191"/>
<rect x="340" y="32" width="26.1651" height="320" fill="#01A7FA"/>
<rect x="685" y="272" width="26.1651" height="80" fill="#01A7FA" fill-opacity="0.6"/>
<rect x="440" y="312" width="26.1651" height="40" fill="#01A7FA" fill-opacity="0.4"/>
<rect x="216" y="332" width="26.1651" height="20" fill="#01A7FA" fill-opacity="0.2"/>
<rect x="17" y="342" width="26.1651" height="10" fill="#01A7FA" fill-opacity="0.1"/>
<rect x="115" y="192" width="26.1651" height="160" fill="#01A7FA" fill-opacity="0.8"/>
<path d="M345.63 20.2081C345.006 20.1982 344.382 20.0793 343.757 19.8513C343.133 19.6234 342.563 19.2393 342.048 18.6992C341.532 18.1541 341.118 17.4182 340.806 16.4915C340.494 15.5599 340.338 14.3904 340.338 12.983C340.338 11.6351 340.464 10.4408 340.717 9.40015C340.97 8.35454 341.337 7.47493 341.817 6.76134C342.298 6.04279 342.878 5.49768 343.557 5.12602C344.24 4.75435 345.011 4.56852 345.868 4.56852C346.721 4.56852 347.479 4.73949 348.143 5.08142C348.812 5.41839 349.357 5.88917 349.778 6.49374C350.199 7.09831 350.472 7.79456 350.596 8.58249H348.782C348.614 7.89863 348.287 7.33122 347.801 6.88027C347.315 6.42932 346.671 6.20384 345.868 6.20384C344.689 6.20384 343.76 6.71674 343.081 7.74253C342.407 8.76832 342.067 10.2079 342.063 12.0613H342.181C342.459 11.64 342.788 11.2808 343.17 10.9834C343.557 10.6812 343.983 10.4482 344.449 10.2847C344.914 10.1212 345.407 10.0394 345.928 10.0394C346.8 10.0394 347.598 10.2575 348.321 10.6935C349.045 11.1247 349.625 11.7218 350.061 12.485C350.497 13.2432 350.715 14.1128 350.715 15.094C350.715 16.0356 350.504 16.8978 350.083 17.6808C349.662 18.4588 349.07 19.0783 348.306 19.5391C347.548 19.995 346.656 20.218 345.63 20.2081ZM345.63 18.5728C346.255 18.5728 346.815 18.4167 347.31 18.1045C347.811 17.7923 348.205 17.3736 348.492 16.8483C348.785 16.323 348.931 15.7383 348.931 15.094C348.931 14.4647 348.79 13.8923 348.507 13.377C348.23 12.8566 347.846 12.4428 347.355 12.1356C346.869 11.8284 346.314 11.6747 345.69 11.6747C345.219 11.6747 344.781 11.7689 344.374 11.9572C343.968 12.1406 343.611 12.3933 343.304 12.7154C343.002 13.0375 342.764 13.4067 342.59 13.8229C342.417 14.2343 342.33 14.6679 342.33 15.1238C342.33 15.7283 342.471 16.2933 342.754 16.8186C343.041 17.3438 343.433 17.7675 343.928 18.0896C344.429 18.4118 344.996 18.5728 345.63 18.5728ZM353.281 16.878V15.3616L359.971 4.77665H361.071V7.12557H360.328L355.273 15.1238V15.2427H364.282V16.878H353.281ZM360.447 20V16.4172V15.711V4.77665H362.201V20H360.447Z" fill="#808191"/>
<path d="M121.72 182.208C120.738 182.208 119.864 182.04 119.096 181.703C118.333 181.366 117.726 180.897 117.275 180.298C116.829 179.693 116.586 178.992 116.546 178.194H118.419C118.459 178.685 118.627 179.108 118.925 179.465C119.222 179.817 119.611 180.09 120.092 180.283C120.572 180.476 121.105 180.573 121.69 180.573C122.344 180.573 122.924 180.459 123.429 180.231C123.935 180.003 124.331 179.686 124.619 179.279C124.906 178.873 125.05 178.402 125.05 177.867C125.05 177.307 124.911 176.814 124.634 176.388C124.356 175.957 123.95 175.62 123.414 175.377C122.879 175.134 122.225 175.013 121.452 175.013H120.233V173.377H121.452C122.057 173.377 122.587 173.268 123.043 173.05C123.504 172.832 123.863 172.525 124.121 172.129C124.383 171.732 124.515 171.266 124.515 170.731C124.515 170.216 124.401 169.767 124.173 169.386C123.945 169.004 123.623 168.707 123.206 168.494C122.795 168.281 122.309 168.174 121.749 168.174C121.224 168.174 120.729 168.271 120.263 168.464C119.802 168.652 119.425 168.927 119.133 169.289C118.841 169.646 118.682 170.077 118.657 170.582H116.873C116.903 169.785 117.143 169.086 117.594 168.486C118.045 167.882 118.635 167.411 119.363 167.074C120.097 166.737 120.902 166.569 121.779 166.569C122.721 166.569 123.528 166.759 124.202 167.141C124.876 167.518 125.394 168.016 125.756 168.635C126.118 169.254 126.299 169.923 126.299 170.642C126.299 171.499 126.073 172.23 125.622 172.835C125.176 173.439 124.569 173.858 123.801 174.091V174.21C124.762 174.369 125.513 174.777 126.053 175.436C126.593 176.091 126.864 176.901 126.864 177.867C126.864 178.695 126.638 179.438 126.187 180.097C125.741 180.751 125.132 181.267 124.358 181.643C123.585 182.02 122.706 182.208 121.72 182.208ZM129.904 182V180.662L134.929 175.161C135.518 174.517 136.004 173.957 136.386 173.481C136.767 173.001 137.05 172.55 137.233 172.129C137.421 171.702 137.515 171.256 137.515 170.791C137.515 170.255 137.387 169.792 137.129 169.401C136.876 169.009 136.529 168.707 136.088 168.494C135.647 168.281 135.152 168.174 134.602 168.174C134.017 168.174 133.506 168.296 133.07 168.538C132.639 168.776 132.305 169.111 132.067 169.542C131.834 169.973 131.717 170.478 131.717 171.058H129.963C129.963 170.166 130.169 169.383 130.58 168.709C130.991 168.035 131.551 167.51 132.26 167.133C132.974 166.757 133.774 166.569 134.661 166.569C135.553 166.569 136.343 166.757 137.032 167.133C137.721 167.51 138.261 168.018 138.653 168.657C139.044 169.297 139.24 170.008 139.24 170.791C139.24 171.351 139.138 171.898 138.935 172.433C138.737 172.964 138.39 173.556 137.894 174.21C137.404 174.859 136.723 175.652 135.85 176.589L132.431 180.246V180.365H139.508V182H129.904Z" fill="#808191"/>
<path d="M692.928 244.777V260H691.084V246.709H690.995L687.279 249.177V247.304L691.084 244.777H692.928ZM702.361 260.208C701.736 260.198 701.112 260.079 700.487 259.851C699.863 259.623 699.293 259.239 698.778 258.699C698.262 258.154 697.849 257.418 697.536 256.491C697.224 255.56 697.068 254.39 697.068 252.983C697.068 251.635 697.195 250.441 697.447 249.4C697.7 248.355 698.067 247.475 698.547 246.761C699.028 246.043 699.608 245.498 700.287 245.126C700.971 244.754 701.741 244.569 702.599 244.569C703.451 244.569 704.209 244.739 704.873 245.081C705.542 245.418 706.087 245.889 706.508 246.494C706.93 247.098 707.202 247.795 707.326 248.582H705.512C705.344 247.899 705.017 247.331 704.531 246.88C704.046 246.429 703.401 246.204 702.599 246.204C701.419 246.204 700.49 246.717 699.811 247.743C699.137 248.768 698.798 250.208 698.793 252.061H698.912C699.189 251.64 699.519 251.281 699.9 250.983C700.287 250.681 700.713 250.448 701.179 250.285C701.645 250.121 702.138 250.039 702.658 250.039C703.53 250.039 704.328 250.257 705.051 250.694C705.775 251.125 706.355 251.722 706.791 252.485C707.227 253.243 707.445 254.113 707.445 255.094C707.445 256.036 707.234 256.898 706.813 257.681C706.392 258.459 705.8 259.078 705.037 259.539C704.278 259.995 703.386 260.218 702.361 260.208ZM702.361 258.573C702.985 258.573 703.545 258.417 704.041 258.105C704.541 257.792 704.935 257.374 705.222 256.848C705.515 256.323 705.661 255.738 705.661 255.094C705.661 254.465 705.52 253.892 705.237 253.377C704.96 252.857 704.576 252.443 704.085 252.136C703.6 251.828 703.044 251.675 702.42 251.675C701.949 251.675 701.511 251.769 701.104 251.957C700.698 252.141 700.341 252.393 700.034 252.715C699.732 253.037 699.494 253.407 699.32 253.823C699.147 254.234 699.06 254.668 699.06 255.124C699.06 255.728 699.201 256.293 699.484 256.819C699.771 257.344 700.163 257.768 700.658 258.09C701.159 258.412 701.726 258.573 702.361 258.573Z" fill="#808191"/>
<path d="M453.452 300.208C452.431 300.208 451.529 300.027 450.746 299.666C449.968 299.299 449.361 298.796 448.925 298.157C448.489 297.512 448.274 296.779 448.279 295.956C448.274 295.312 448.4 294.717 448.658 294.172C448.915 293.622 449.267 293.164 449.713 292.797C450.164 292.425 450.667 292.19 451.222 292.091V292.002C450.494 291.813 449.914 291.405 449.483 290.775C449.052 290.141 448.838 289.42 448.843 288.612C448.838 287.839 449.034 287.148 449.431 286.538C449.827 285.929 450.372 285.448 451.066 285.096C451.765 284.744 452.56 284.569 453.452 284.569C454.334 284.569 455.122 284.744 455.816 285.096C456.51 285.448 457.055 285.929 457.451 286.538C457.853 287.148 458.056 287.839 458.061 288.612C458.056 289.42 457.835 290.141 457.399 290.775C456.968 291.405 456.396 291.813 455.682 292.002V292.091C456.232 292.19 456.728 292.425 457.169 292.797C457.61 293.164 457.962 293.622 458.224 294.172C458.487 294.717 458.621 295.312 458.626 295.956C458.621 296.779 458.398 297.512 457.957 298.157C457.521 298.796 456.914 299.299 456.135 299.666C455.362 300.027 454.468 300.208 453.452 300.208ZM453.452 298.573C454.141 298.573 454.736 298.461 455.236 298.238C455.737 298.015 456.123 297.701 456.396 297.294C456.668 296.888 456.807 296.412 456.812 295.867C456.807 295.292 456.658 294.784 456.366 294.343C456.074 293.902 455.675 293.555 455.169 293.303C454.669 293.05 454.096 292.924 453.452 292.924C452.803 292.924 452.223 293.05 451.713 293.303C451.207 293.555 450.808 293.902 450.516 294.343C450.229 294.784 450.087 295.292 450.092 295.867C450.087 296.412 450.219 296.888 450.486 297.294C450.759 297.701 451.148 298.015 451.653 298.238C452.159 298.461 452.758 298.573 453.452 298.573ZM453.452 291.348C453.997 291.348 454.48 291.239 454.902 291.021C455.328 290.803 455.662 290.498 455.905 290.106C456.148 289.715 456.272 289.256 456.277 288.731C456.272 288.216 456.15 287.767 455.912 287.386C455.675 286.999 455.345 286.702 454.924 286.494C454.503 286.281 454.012 286.174 453.452 286.174C452.882 286.174 452.384 286.281 451.958 286.494C451.532 286.702 451.202 286.999 450.969 287.386C450.736 287.767 450.622 288.216 450.627 288.731C450.622 289.256 450.739 289.715 450.977 290.106C451.22 290.498 451.554 290.803 451.98 291.021C452.406 291.239 452.897 291.348 453.452 291.348Z" fill="#808191"/>
<path d="M223.219 316.878V315.362L229.909 304.777H231.009V307.126H230.266L225.211 315.124V315.243H234.22V316.878H223.219ZM230.385 320V316.417V315.711V304.777H232.139V320H230.385Z" fill="#808191"/>
<path d="M24.5759 330V328.662L29.6007 323.161C30.1905 322.517 30.6761 321.957 31.0577 321.481C31.4392 321.001 31.7217 320.55 31.9051 320.129C32.0934 319.702 32.1875 319.256 32.1875 318.791C32.1875 318.255 32.0587 317.792 31.801 317.401C31.5483 317.009 31.2014 316.707 30.7603 316.494C30.3193 316.281 29.8237 316.174 29.2737 316.174C28.6889 316.174 28.1785 316.296 27.7424 316.538C27.3113 316.776 26.9768 317.111 26.7389 317.542C26.506 317.973 26.3896 318.478 26.3896 319.058H24.6353C24.6353 318.166 24.841 317.383 25.2523 316.709C25.6636 316.035 26.2236 315.51 26.9322 315.133C27.6458 314.757 28.4461 314.569 29.3331 314.569C30.2251 314.569 31.0155 314.757 31.7044 315.133C32.3932 315.51 32.9333 316.018 33.3248 316.657C33.7163 317.297 33.912 318.008 33.912 318.791C33.912 319.351 33.8105 319.898 33.6073 320.433C33.4091 320.964 33.0622 321.556 32.5666 322.21C32.076 322.859 31.3946 323.652 30.5225 324.589L27.1032 328.246V328.365H34.1796V330H24.5759Z" fill="#808191"/>
<defs>
<filter id="filter0_f_13_46" x="322.557" y="14.5566" width="61.052" height="354.887" filterUnits="userSpaceOnUse" color-interpolation-filters="sRGB">
<feFlood flood-opacity="0" result="BackgroundImageFix"/>
<feBlend mode="normal" in="SourceGraphic" in2="BackgroundImageFix" result="shape"/>
<feGaussianBlur stdDeviation="8.72171" result="effect1_foregroundBlur_13_46"/>
</filter>
</defs>
</svg>
